<?xml version="1.0" encoding="UTF-8" standalone="no"?>
<!DOCTYPE svg PUBLIC "-//W3C//DTD SVG 1.1//EN" "http://www.w3.org/Graphics/SVG/1.1/DTD/svg11.dtd">
<svg width="100%" height="100%" viewBox="0 0 61 64" version="1.1" xmlns="http://www.w3.org/2000/svg" xmlns:xlink="http://www.w3.org/1999/xlink" xml:space="preserve" xmlns:serif="http://www.serif.com/" style="fill-rule:evenodd;clip-rule:evenodd;stroke-linejoin:round;stroke-miterlimit:2;">
    <g transform="matrix(1,0,0,1,-2595.38,-4673.12)">
        <g transform="matrix(0.802709,0,0,0.802709,-2333.89,3489.14)">
            <g transform="matrix(0.710376,0,0,0.852451,4459.47,-1534.36)">
                <path d="M2468.1,3530.94C2469.16,3530.01 2470.94,3529.97 2472.06,3530.87C2473.18,3531.76 2473.22,3533.24 2472.16,3534.17L2371.71,3621.86C2370.64,3622.79 2368.86,3622.82 2367.74,3621.93C2366.62,3621.04 2366.58,3619.56 2367.65,3618.63L2468.1,3530.94Z" style="fill:rgb(97,126,102);"/>
            </g>
            <g transform="matrix(0.0953764,0,0,0.129134,4457.02,1386.53)">
                <g transform="matrix(8.54774,0,0,6.60309,-28486.4,-9002.49)">
                    <g transform="matrix(1,0,0,1,3204.54,-2105.89)">
                        <path d="M2209.89,3649.01C2217.42,3656.86 2228,3661.74 2239.73,3661.74C2262.61,3661.74 2281.12,3643.12 2281.12,3620.24C2281.12,3597.36 2262.61,3578.74 2239.73,3578.74C2227.14,3578.74 2215.86,3584.38 2208.27,3593.27C2207.42,3594.27 2205.88,3594.42 2204.83,3593.6C2203.79,3592.78 2203.63,3591.31 2204.49,3590.31C2212.98,3580.36 2225.63,3574.06 2239.73,3574.06C2265.24,3574.06 2286.01,3594.72 2286.01,3620.24C2286.01,3645.76 2265.24,3666.42 2239.73,3666.42C2226.71,3666.42 2214.93,3661.05 2206.51,3652.39L2209.89,3649.01Z" style="fill:rgb(96,125,101);"/>
                    </g>
                    <g transform="matrix(1.52228,0.133182,-0.185679,2.12233,2446.19,-8306.07)">
                        <path d="M2492.86,4457.45C2492.86,4458.05 2492.15,4458.55 2491.26,4458.55C2490.38,4458.56 2489.66,4458.07 2489.66,4457.47L2489.66,4450.29C2489.66,4449.69 2490.38,4449.19 2491.26,4449.19C2492.15,4449.18 2492.86,4449.67 2492.86,4450.28L2492.86,4457.45Z" style="fill:rgb(96,125,101);"/>
                    </g>
                </g>
                <g transform="matrix(14.1599,-0.95699,1.1384,10.0517,-22586.1,-41611.6)">
                    <path d="M2491.71,4458.99C2490.9,4458.99 2490.24,4458.3 2490.23,4457.46C2490.22,4456.61 2490.88,4455.93 2491.69,4455.93L2500.88,4455.93C2501.69,4455.93 2502.35,4456.61 2502.36,4457.46C2502.37,4458.3 2501.71,4458.99 2500.9,4458.99L2491.71,4458.99Z" style="fill:rgb(96,125,101);"/>
                </g>
            </g>
            <g transform="matrix(1.24578,0,0,4.50935,3415.91,-19798.8)">
                <path d="M2190.49,4734.72C2190.49,4734.96 2189.77,4735.16 2188.88,4735.16C2188,4735.16 2187.29,4734.96 2187.29,4734.72L2187.33,4729.56C2187.33,4729.31 2188.05,4729.11 2188.93,4729.12C2189.81,4729.12 2190.53,4729.32 2190.53,4729.56L2190.49,4734.72Z" style="fill:rgb(97,126,102);"/>
            </g>
        </g>
    </g>
</svg>
