<?xml version="1.0" encoding="UTF-8" standalone="no"?>
<!DOCTYPE svg PUBLIC "-//W3C//DTD SVG 1.1//EN" "http://www.w3.org/Graphics/SVG/1.1/DTD/svg11.dtd">
<svg width="100%" height="100%" viewBox="0 0 61 64" version="1.1" xmlns="http://www.w3.org/2000/svg" xmlns:xlink="http://www.w3.org/1999/xlink" xml:space="preserve" xmlns:serif="http://www.serif.com/" style="fill-rule:evenodd;clip-rule:evenodd;stroke-linejoin:round;stroke-miterlimit:2;">
    <g transform="matrix(1,0,0,1,-2482.8,-4673.1)">
        <g transform="matrix(0.0765596,0,0,0.0991068,1131.2,4377.28)">
            <g transform="matrix(8.54774,0,0,6.90628,-28486.4,-7154.66)">
                <g>
                    <g transform="matrix(1,0,0,1,3204.54,-2105.89)">
                        <path d="M2210.51,3649.64C2218,3657.12 2228.32,3661.74 2239.73,3661.74C2262.61,3661.74 2281.12,3643.12 2281.12,3620.24C2281.12,3597.36 2262.61,3578.74 2239.73,3578.74C2228.29,3578.74 2217.94,3583.4 2210.45,3590.91L2207.07,3587.53C2215.44,3579.2 2226.99,3574.06 2239.73,3574.06C2265.24,3574.06 2286.01,3594.72 2286.01,3620.24C2286.01,3645.76 2265.24,3666.42 2239.73,3666.42C2227.02,3666.42 2215.49,3661.3 2207.11,3653L2210.51,3649.64Z" style="fill:rgb(211,0,42);"/>
                    </g>
                    <g transform="matrix(1.52228,0.133182,-0.185679,2.12233,2446.19,-8306.07)">
                        <path d="M2489.66,4454.35L2489.66,4450.29C2489.66,4449.69 2490.38,4449.19 2491.26,4449.19C2492.15,4449.18 2492.86,4449.67 2492.86,4450.28L2492.86,4456.17L2501.27,4455.1C2502.14,4454.99 2502.97,4455.39 2503.12,4455.98C2503.28,4456.58 2502.69,4457.15 2501.82,4457.26L2495.77,4458.03L2489.66,4454.35Z" style="fill:rgb(211,0,42);"/>
                    </g>
                </g>
            </g>
        </g>
        <g transform="matrix(0.0765596,0,0,0.0991068,1131.2,4377.28)">
            <g transform="matrix(-7.44813,0,0,6.90438,36073.5,-21388.9)">
                <path d="M2472.15,3534.17C2473.22,3533.24 2473.18,3531.76 2472.06,3530.87C2470.94,3529.97 2469.16,3530.01 2468.09,3530.94L2367.56,3618.62C2366.49,3619.56 2366.53,3621.04 2367.65,3621.93C2368.77,3622.82 2370.54,3622.79 2371.61,3621.86L2472.15,3534.17Z" style="fill:rgb(211,0,42);"/>
            </g>
        </g>
        <g transform="matrix(0.0765596,0,0,0.0991068,1131.2,4377.28)">
            <g transform="matrix(7.44813,0,0,6.90438,23.8746,-21388.9)">
                <path d="M2468.49,3530.94C2469.56,3530.01 2471.34,3529.97 2472.45,3530.87C2473.57,3531.76 2473.61,3533.24 2472.54,3534.17L2371.91,3621.86C2370.84,3622.79 2369.06,3622.82 2367.95,3621.93C2366.83,3621.04 2366.79,3619.56 2367.86,3618.62L2468.49,3530.94Z" style="fill:rgb(211,0,42);"/>
            </g>
        </g>
    </g>
</svg>
