<?xml version="1.0" encoding="UTF-8" standalone="no"?>
<!DOCTYPE svg PUBLIC "-//W3C//DTD SVG 1.1//EN" "http://www.w3.org/Graphics/SVG/1.1/DTD/svg11.dtd">
<svg width="100%" height="100%" viewBox="0 0 62 64" version="1.1" xmlns="http://www.w3.org/2000/svg" xmlns:xlink="http://www.w3.org/1999/xlink" xml:space="preserve" xmlns:serif="http://www.serif.com/" style="fill-rule:evenodd;clip-rule:evenodd;stroke-linecap:round;stroke-linejoin:round;stroke-miterlimit:1.5;">
    <g transform="matrix(1,0,0,1,-2265.17,-4442.9)">
        <g transform="matrix(0.0765596,0,0,0.0483034,1131.2,4377.28)">
            <g transform="matrix(13.0617,0,0,20.7025,-48759.7,-27531.2)">
                <g transform="matrix(0.0635734,0,0,0.0614062,4645.47,1388.72)">
                    <path d="M3587.64,483.117C3569.18,483.117 3552.07,478.687 3536.3,469.828C3520.53,460.969 3506.1,447.854 3493.01,430.484C3490.33,426.662 3488.23,423.449 3486.72,420.843C3485.21,418.237 3484.45,415.197 3484.45,411.723C3484.45,405.47 3486.47,400.432 3490.49,396.611C3494.52,392.789 3499.22,390.879 3504.59,390.879C3509.28,390.879 3513.06,392.095 3515.91,394.526C3518.76,396.958 3521.2,399.564 3523.21,402.343C3531.26,413.808 3540.66,423.188 3551.4,430.484C3562.14,437.779 3574.22,441.427 3587.64,441.427C3602.41,441.427 3614.4,437.606 3623.63,429.963C3632.86,422.319 3639.57,412.418 3643.76,400.259C3647.96,388.099 3650.06,375.419 3650.06,362.217C3650.06,345.541 3647.62,330.95 3642.76,318.443C3637.89,305.936 3630.93,296.122 3621.87,289C3612.81,281.878 3601.57,278.317 3588.14,278.317C3575.06,278.317 3563.9,280.401 3554.67,284.57C3545.44,288.739 3538.65,293.603 3534.28,299.162C3532.27,301.593 3529.84,303.765 3526.99,305.676C3524.13,307.586 3520.86,308.542 3517.17,308.542C3511.47,308.542 3506.68,306.544 3502.83,302.549C3498.97,298.554 3497.04,293.603 3497.04,287.697L3497.04,135.009C3497.04,129.103 3498.97,124.152 3502.83,120.157C3506.68,116.162 3511.47,114.164 3517.17,114.164L3665.16,114.164C3670.86,114.164 3675.64,116.162 3679.5,120.157C3683.36,124.152 3685.29,129.103 3685.29,135.009C3685.29,140.915 3683.36,145.866 3679.5,149.861C3675.64,153.856 3670.86,155.854 3665.16,155.854L3537.31,155.854L3537.31,263.725L3527.24,258.514C3535.29,251.219 3544.77,245.747 3555.68,242.099C3566.58,238.451 3577.41,236.627 3588.14,236.627C3608.61,236.627 3626.48,241.925 3641.75,252.521C3657.02,263.117 3668.93,277.882 3677.49,296.816C3686.05,315.751 3690.33,337.551 3690.33,362.217C3690.33,384.451 3686.3,404.688 3678.24,422.927C3670.19,441.167 3658.53,455.758 3643.26,466.701C3627.99,477.645 3609.45,483.117 3587.64,483.117Z" style="fill:rgb(17,15,18);fill-rule:nonzero;"/>
                    <path d="M3851.9,483.117C3832.44,483.117 3815.66,477.992 3801.57,467.744C3787.47,457.495 3775.98,443.599 3767.09,426.054C3758.19,408.51 3751.57,388.534 3747.2,366.125C3742.84,343.717 3740.66,320.527 3740.66,296.556C3740.66,272.584 3742.84,249.395 3747.2,226.986C3751.57,204.578 3758.19,184.602 3767.09,167.058C3775.98,149.513 3787.47,135.617 3801.57,125.368C3815.66,115.119 3832.44,109.995 3851.9,109.995C3871.37,109.995 3888.14,115.119 3902.24,125.368C3916.33,135.617 3927.83,149.513 3936.72,167.058C3945.61,184.602 3952.24,204.578 3956.6,226.986C3960.96,249.395 3963.14,272.584 3963.14,296.556C3963.14,320.527 3960.96,343.717 3956.6,366.125C3952.24,388.534 3945.61,408.51 3936.72,426.054C3927.83,443.599 3916.33,457.495 3902.24,467.744C3888.14,477.992 3871.37,483.117 3851.9,483.117ZM3851.9,441.427C3864.65,441.427 3875.56,437.345 3884.62,429.181C3893.68,421.017 3901.06,410.073 3906.77,396.35C3912.47,382.628 3916.58,367.081 3919.1,349.71C3921.62,332.339 3922.88,314.621 3922.88,296.556C3922.88,278.143 3921.62,260.338 3919.1,243.141C3916.58,225.944 3912.47,210.484 3906.77,196.762C3901.06,183.039 3893.68,172.095 3884.62,163.931C3875.56,155.767 3864.65,151.685 3851.9,151.685C3839.15,151.685 3828.24,155.767 3819.18,163.931C3810.12,172.095 3802.83,183.039 3797.29,196.762C3791.75,210.484 3787.64,225.944 3784.96,243.141C3782.27,260.338 3780.93,278.143 3780.93,296.556C3780.93,314.621 3782.27,332.339 3784.96,349.71C3787.64,367.081 3791.75,382.628 3797.29,396.35C3802.83,410.073 3810.12,421.017 3819.18,429.181C3828.24,437.345 3839.15,441.427 3851.9,441.427ZM3851.9,338.246C3844.52,338.246 3838.48,335.814 3833.78,330.95C3829.08,326.086 3826.74,319.833 3826.74,312.19L3826.74,280.922C3826.74,273.279 3829.08,267.026 3833.78,262.162C3838.48,257.298 3844.52,254.866 3851.9,254.866C3859.28,254.866 3865.33,257.298 3870.02,262.162C3874.72,267.026 3877.07,273.279 3877.07,280.922L3877.07,312.19C3877.07,319.833 3874.72,326.086 3870.02,330.95C3865.33,335.814 3859.28,338.246 3851.9,338.246Z" style="fill:rgb(17,15,18);fill-rule:nonzero;"/>
                </g>
                <g transform="matrix(0.0676908,0,0,0.0614062,4661,1429.18)">
                    <path d="M3596.05,483.117C3578.71,483.117 3562.64,478.687 3547.83,469.828C3533.01,460.969 3519.46,447.854 3507.17,430.484C3504.65,426.662 3502.68,423.449 3501.26,420.843C3499.84,418.237 3499.13,415.197 3499.13,411.723C3499.13,405.47 3501.03,400.432 3504.81,396.611C3508.59,392.789 3513,390.879 3518.04,390.879C3522.46,390.879 3526,392.095 3528.68,394.526C3531.36,396.958 3533.64,399.564 3535.53,402.343C3543.1,413.808 3551.92,423.188 3562.01,430.484C3572.09,437.779 3583.44,441.427 3596.05,441.427C3609.91,441.427 3621.18,437.606 3629.85,429.963C3638.51,422.319 3644.82,412.418 3648.76,400.259C3652.7,388.099 3654.66,375.419 3654.66,362.217C3654.66,345.541 3652.38,330.95 3647.81,318.443C3643.24,305.936 3636.7,296.122 3628.19,289C3619.68,281.878 3609.12,278.317 3596.52,278.317C3584.23,278.317 3573.75,280.401 3565.08,284.57C3556.41,288.739 3550.03,293.603 3545.93,299.162C3544.04,301.593 3541.76,303.765 3539.08,305.676C3536.4,307.586 3533.33,308.542 3529.86,308.542C3524.5,308.542 3520.01,306.544 3516.39,302.549C3512.76,298.554 3510.95,293.603 3510.95,287.697L3510.95,135.009C3510.95,129.103 3512.76,124.152 3516.39,120.157C3520.01,116.162 3524.5,114.164 3529.86,114.164L3668.85,114.164C3674.2,114.164 3678.7,116.162 3682.32,120.157C3685.94,124.152 3687.76,129.103 3687.76,135.009C3687.76,140.915 3685.94,145.866 3682.32,149.861C3678.7,153.856 3674.2,155.854 3668.85,155.854L3548.77,155.854L3548.77,263.725L3539.32,258.514C3546.88,251.219 3555.78,245.747 3566.03,242.099C3576.27,238.451 3586.43,236.627 3596.52,236.627C3615.74,236.627 3632.53,241.925 3646.87,252.521C3661.2,263.117 3672.39,277.882 3680.43,296.816C3688.47,315.751 3692.48,337.551 3692.48,362.217C3692.48,384.451 3688.7,404.688 3681.14,422.927C3673.57,441.167 3662.62,455.758 3648.28,466.701C3633.94,477.645 3616.53,483.117 3596.05,483.117Z" style="fill:rgb(17,15,18);fill-rule:nonzero;"/>
                    <path d="M3844.23,483.117C3825.95,483.117 3810.2,477.992 3796.96,467.744C3783.72,457.495 3772.93,443.599 3764.58,426.054C3756.22,408.51 3750,388.534 3745.9,366.125C3741.81,343.717 3739.76,320.527 3739.76,296.556C3739.76,272.584 3741.81,249.395 3745.9,226.986C3750,204.578 3756.22,184.602 3764.58,167.058C3772.93,149.513 3783.72,135.617 3796.96,125.368C3810.2,115.119 3825.95,109.995 3844.23,109.995C3862.51,109.995 3878.27,115.119 3891.51,125.368C3904.74,135.617 3915.54,149.513 3923.89,167.058C3932.24,184.602 3938.47,204.578 3942.56,226.986C3946.66,249.395 3948.71,272.584 3948.71,296.556C3948.71,320.527 3946.66,343.717 3942.56,366.125C3938.47,388.534 3932.24,408.51 3923.89,426.054C3915.54,443.599 3904.74,457.495 3891.51,467.744C3878.27,477.992 3862.51,483.117 3844.23,483.117ZM3844.23,441.427C3856.21,441.427 3866.45,437.345 3874.96,429.181C3883.47,421.017 3890.4,410.073 3895.76,396.35C3901.12,382.628 3904.98,367.081 3907.34,349.71C3909.71,332.339 3910.89,314.621 3910.89,296.556C3910.89,278.143 3909.71,260.338 3907.34,243.141C3904.98,225.944 3901.12,210.484 3895.76,196.762C3890.4,183.039 3883.47,172.095 3874.96,163.931C3866.45,155.767 3856.21,151.685 3844.23,151.685C3832.26,151.685 3822.01,155.767 3813.51,163.931C3805,172.095 3798.14,183.039 3792.94,196.762C3787.74,210.484 3783.88,225.944 3781.36,243.141C3778.84,260.338 3777.58,278.143 3777.58,296.556C3777.58,314.621 3778.84,332.339 3781.36,349.71C3783.88,367.081 3787.74,382.628 3792.94,396.35C3798.14,410.073 3805,421.017 3813.51,429.181C3822.01,437.345 3832.26,441.427 3844.23,441.427ZM3844.23,338.246C3837.3,338.246 3831.63,335.814 3827.21,330.95C3822.8,326.086 3820.6,319.833 3820.6,312.19L3820.6,280.922C3820.6,273.279 3822.8,267.026 3827.21,262.162C3831.63,257.298 3837.3,254.866 3844.23,254.866C3851.17,254.866 3856.84,257.298 3861.25,262.162C3865.66,267.026 3867.87,273.279 3867.87,280.922L3867.87,312.19C3867.87,319.833 3865.66,326.086 3861.25,330.95C3856.84,335.814 3851.17,338.246 3844.23,338.246Z" style="fill:rgb(17,15,18);fill-rule:nonzero;"/>
                </g>
                <g transform="matrix(0.570225,0,0,0.68427,3518.18,-1019.9)">
                    <path d="M2470.12,3532.56L2369.68,3620.24" style="fill:none;stroke:rgb(28,26,29);stroke-width:5.08px;"/>
                </g>
            </g>
        </g>
    </g>
</svg>
