<?xml version="1.0" encoding="UTF-8" standalone="no"?>
<!DOCTYPE svg PUBLIC "-//W3C//DTD SVG 1.1//EN" "http://www.w3.org/Graphics/SVG/1.1/DTD/svg11.dtd">
<svg width="100%" height="100%" viewBox="0 0 54 64" version="1.1" xmlns="http://www.w3.org/2000/svg" xmlns:xlink="http://www.w3.org/1999/xlink" xml:space="preserve" xmlns:serif="http://www.serif.com/" style="fill-rule:evenodd;clip-rule:evenodd;stroke-linecap:round;stroke-linejoin:round;stroke-miterlimit:1.5;">
    <g transform="matrix(1,0,0,1,-2028.66,-4443.15)">
        <g transform="matrix(0.802709,0,0,0.802709,-2453.98,3259.17)">
            <g transform="matrix(0.0791392,0,0,0.0764987,5296.99,1469.74)">
                <path d="M3760.76,524.546C3753.62,524.546 3747.64,522.049 3742.81,517.055C3737.99,512.061 3735.57,505.872 3735.57,498.49C3735.57,491.107 3737.99,484.919 3742.81,479.925C3747.64,474.931 3753.62,472.434 3760.76,472.434L3735.57,498.49L3735.57,157.156L3675.75,219.039C3669.88,225.119 3663.79,228.159 3657.49,228.159C3649.52,228.159 3643.22,225.445 3638.6,220.016C3633.99,214.588 3631.68,208.617 3631.68,202.103C3631.68,194.286 3634.41,187.555 3639.86,181.91L3742.5,75.731C3747.12,70.955 3753.2,68.566 3760.76,68.566C3767.89,68.566 3773.88,71.063 3778.7,76.057C3783.53,81.051 3785.95,87.24 3785.95,94.622L3785.95,498.49L3760.76,472.434C3767.89,472.434 3773.88,474.931 3778.7,479.925C3783.53,484.919 3785.95,491.107 3785.95,498.49C3785.95,505.872 3783.53,512.061 3778.7,517.055C3773.88,522.049 3767.89,524.546 3760.76,524.546Z" style="fill:rgb(17,15,18);fill-rule:nonzero;"/>
            </g>
        </g>
        <g transform="matrix(0.802709,0,0,0.802709,-2453.98,3259.17)">
            <g transform="matrix(0.0791392,0,0,0.0764987,5346.45,1513.58)">
                <path d="M3635.45,524.546C3628.32,524.546 3622.34,522.049 3617.51,517.055C3612.68,512.061 3610.27,505.872 3610.27,498.49L3610.27,450.938C3610.27,434.435 3613,419.996 3618.45,407.62C3623.91,395.243 3631.15,383.735 3640.18,373.095C3649.2,362.456 3658.96,351.708 3669.46,340.851L3741.87,267.243C3754.88,253.781 3765.17,242.056 3772.72,232.067C3780.28,222.079 3785.63,212.417 3788.78,203.08C3791.93,193.743 3793.5,184.081 3793.5,174.093C3793.5,158.025 3788.36,144.237 3778.07,132.729C3767.79,121.221 3751.1,115.467 3728.02,115.467C3712.48,115.467 3698.95,118.507 3687.4,124.586C3675.86,130.666 3665.05,140.654 3654.97,154.551C3648.26,163.67 3640.49,168.23 3631.68,168.23C3625.38,168.23 3619.61,165.733 3614.36,160.739C3609.11,155.745 3606.49,149.774 3606.49,142.826C3606.49,135.877 3609.22,128.929 3614.68,121.981C3629.37,102.873 3646.47,88.325 3665.99,78.337C3685.51,68.349 3706.19,63.355 3728.02,63.355C3752.36,63.355 3773.14,68.24 3790.35,78.011C3807.56,87.782 3820.79,101.028 3830.02,117.747C3839.26,134.466 3843.87,153.248 3843.87,174.093C3843.87,191.029 3841.36,206.663 3836.32,220.994C3831.28,235.324 3823.72,249.112 3813.65,262.357C3803.58,275.603 3791.19,289.825 3776.5,305.024L3704.09,377.981C3692.76,389.272 3683.94,399.043 3677.64,407.294C3671.35,415.545 3666.94,423.036 3664.42,429.767C3661.9,436.498 3660.64,443.555 3660.64,450.938L3660.64,472.434L3820.58,472.434C3827.71,472.434 3833.7,474.931 3838.52,479.925C3843.35,484.919 3845.76,491.107 3845.76,498.49C3845.76,505.872 3843.35,512.061 3838.52,517.055C3833.7,522.049 3827.71,524.546 3820.58,524.546L3635.45,524.546Z" style="fill:rgb(17,15,18);fill-rule:nonzero;"/>
            </g>
        </g>
        <g transform="matrix(0.802709,0,0,0.802709,-2453.98,3259.17)">
            <g transform="matrix(0.710376,0,0,0.852451,3903.02,-1534.36)">
                <path d="M2457.37,3532.56L2369.68,3620.24" style="fill:none;stroke:rgb(28,26,29);stroke-width:5.08px;"/>
            </g>
        </g>
    </g>
</svg>
