<?xml version="1.0" encoding="UTF-8" standalone="no"?>
<!DOCTYPE svg PUBLIC "-//W3C//DTD SVG 1.1//EN" "http://www.w3.org/Graphics/SVG/1.1/DTD/svg11.dtd">
<svg width="100%" height="100%" viewBox="0 0 54 64" version="1.1" xmlns="http://www.w3.org/2000/svg" xmlns:xlink="http://www.w3.org/1999/xlink" xml:space="preserve" xmlns:serif="http://www.serif.com/" style="fill-rule:evenodd;clip-rule:evenodd;stroke-linecap:round;stroke-linejoin:round;stroke-miterlimit:1.5;">
    <g transform="matrix(1,0,0,1,-2150.56,-4443.15)">
        <g transform="matrix(0.0765596,0,0,0.0483034,1131.2,4377.28)">
            <g transform="matrix(10.4848,0,0,16.6181,-45236.4,-23147.6)">
                <g transform="matrix(0.0791392,0,0,0.0764987,5299.82,1470.15)">
                    <path d="M3724.24,529.757C3701.15,529.757 3679.74,524.98 3660.01,515.426C3640.28,505.872 3622.23,491.759 3605.86,473.085C3602.92,469.611 3600.51,466.246 3598.62,462.989C3596.73,459.732 3595.79,455.932 3595.79,451.589C3595.79,443.772 3598.31,437.367 3603.34,432.373C3608.38,427.379 3614.26,424.882 3620.97,424.882C3625.59,424.882 3629.89,426.184 3633.88,428.79C3637.87,431.396 3641.54,434.87 3644.9,439.212C3654.97,451.372 3666.73,460.817 3680.16,467.548C3693.59,474.279 3708.29,477.645 3724.24,477.645C3740.19,477.645 3753.62,474.062 3764.54,466.897C3775.45,459.732 3783.64,450.069 3789.09,437.91C3794.55,425.75 3797.28,412.505 3797.28,398.174C3797.28,381.238 3793.71,366.69 3786.58,354.53C3779.44,342.371 3769.15,333.034 3755.72,326.52C3742.29,320.006 3726.13,316.749 3707.24,316.749L3682.05,316.749C3674.91,316.749 3668.93,314.252 3664.11,309.258C3659.28,304.264 3656.65,298.076 3656.23,290.693C3656.23,283.311 3658.65,277.123 3663.47,272.128C3668.3,267.134 3674.28,264.637 3681.42,264.637L3697.16,264.637C3716.05,264.637 3731.79,260.946 3744.39,253.564C3756.98,246.181 3766.43,236.301 3772.72,223.925C3779.02,211.548 3782.17,197.977 3782.17,183.212C3782.17,171.053 3780.07,159.871 3775.87,149.665C3771.67,139.46 3764.96,131.209 3755.72,124.912C3746.49,118.615 3734.31,115.467 3719.2,115.467C3704.93,115.467 3693.07,118.507 3683.62,124.586C3674.18,130.666 3664.42,140.654 3654.35,154.551C3647.63,163.67 3639.86,168.23 3631.05,168.23C3624.75,168.23 3618.98,165.733 3613.73,160.739C3608.48,155.745 3605.86,149.774 3605.86,142.826C3605.86,135.877 3608.59,128.929 3614.05,121.981C3628.74,102.873 3644.8,88.325 3662.22,78.337C3679.64,68.349 3698.63,63.355 3719.2,63.355C3743.13,63.355 3763.49,68.783 3780.28,79.64C3797.07,90.497 3809.98,104.827 3819,122.632C3828.03,140.437 3832.54,159.762 3832.54,180.607C3832.54,197.543 3829.08,214.697 3822.15,232.067C3815.22,249.438 3804.2,264.203 3789.09,276.363C3773.98,288.522 3754.04,295.253 3729.28,296.556L3734.94,280.271C3760.97,283.311 3782.27,290.368 3798.85,301.441C3815.43,312.515 3827.71,326.412 3835.69,343.131C3843.66,359.85 3847.65,378.632 3847.65,399.477C3847.65,423.362 3842.62,445.184 3832.54,464.943C3822.47,484.702 3808.19,500.444 3789.72,512.169C3771.25,523.894 3749.42,529.757 3724.24,529.757Z" style="fill:rgb(17,15,18);fill-rule:nonzero;"/>
                </g>
                <g transform="matrix(0.0791392,0,0,0.0764987,5346.17,1513.17)">
                    <path d="M3724.24,529.757C3701.15,529.757 3679.74,524.98 3660.01,515.426C3640.28,505.872 3622.23,491.759 3605.86,473.085C3602.92,469.611 3600.51,466.246 3598.62,462.989C3596.73,459.732 3595.79,455.932 3595.79,451.589C3595.79,443.772 3598.31,437.367 3603.34,432.373C3608.38,427.379 3614.26,424.882 3620.97,424.882C3625.59,424.882 3629.89,426.184 3633.88,428.79C3637.87,431.396 3641.54,434.87 3644.9,439.212C3654.97,451.372 3666.73,460.817 3680.16,467.548C3693.59,474.279 3708.29,477.645 3724.24,477.645C3740.19,477.645 3753.62,474.062 3764.54,466.897C3775.45,459.732 3783.64,450.069 3789.09,437.91C3794.55,425.75 3797.28,412.505 3797.28,398.174C3797.28,381.238 3793.71,366.69 3786.58,354.53C3779.44,342.371 3769.15,333.034 3755.72,326.52C3742.29,320.006 3726.13,316.749 3707.24,316.749L3682.05,316.749C3674.91,316.749 3668.93,314.252 3664.11,309.258C3659.28,304.264 3656.65,298.076 3656.23,290.693C3656.23,283.311 3658.65,277.123 3663.47,272.128C3668.3,267.134 3674.28,264.637 3681.42,264.637L3697.16,264.637C3716.05,264.637 3731.79,260.946 3744.39,253.564C3756.98,246.181 3766.43,236.301 3772.72,223.925C3779.02,211.548 3782.17,197.977 3782.17,183.212C3782.17,171.053 3780.07,159.871 3775.87,149.665C3771.67,139.46 3764.96,131.209 3755.72,124.912C3746.49,118.615 3734.31,115.467 3719.2,115.467C3704.93,115.467 3693.07,118.507 3683.62,124.586C3674.18,130.666 3664.42,140.654 3654.35,154.551C3647.63,163.67 3639.86,168.23 3631.05,168.23C3624.75,168.23 3618.98,165.733 3613.73,160.739C3608.48,155.745 3605.86,149.774 3605.86,142.826C3605.86,135.877 3608.59,128.929 3614.05,121.981C3628.74,102.873 3644.8,88.325 3662.22,78.337C3679.64,68.349 3698.63,63.355 3719.2,63.355C3743.13,63.355 3763.49,68.783 3780.28,79.64C3797.07,90.497 3809.98,104.827 3819,122.632C3828.03,140.437 3832.54,159.762 3832.54,180.607C3832.54,197.543 3829.08,214.697 3822.15,232.067C3815.22,249.438 3804.2,264.203 3789.09,276.363C3773.98,288.522 3754.04,295.253 3729.28,296.556L3734.94,280.271C3760.97,283.311 3782.27,290.368 3798.85,301.441C3815.43,312.515 3827.71,326.412 3835.69,343.131C3843.66,359.85 3847.65,378.632 3847.65,399.477C3847.65,423.362 3842.62,445.184 3832.54,464.943C3822.47,484.702 3808.19,500.444 3789.72,512.169C3771.25,523.894 3749.42,529.757 3724.24,529.757Z" style="fill:rgb(17,15,18);fill-rule:nonzero;"/>
                </g>
                <g transform="matrix(0.710376,0,0,0.852451,3903.02,-1534.36)">
                    <path d="M2457.37,3532.56L2369.68,3620.24" style="fill:none;stroke:rgb(28,26,29);stroke-width:5.08px;"/>
                </g>
            </g>
        </g>
    </g>
</svg>
